<svg width="80" height="80" viewBox="0 0 80 80" fill="none" xmlns="http://www.w3.org/2000/svg">
<g clip-path="url(#clip0)">
<path d="M21.6667 63.3333H15C14.08 63.3333 13.3333 62.5867 13.3333 61.6667C13.3333 60.7467 14.08 60 15 60H21.6667C22.5867 60 23.3333 60.7467 23.3333 61.6667C23.3333 62.5867 22.5867 63.3333 21.6667 63.3333Z" fill="#1A6CCD"/>
<path d="M75.8333 63.3335H71.6667C70.7467 63.3335 70 62.5868 70 61.6668C70 60.7468 70.7467 60.0002 71.6667 60.0002H74.45L76.6967 48.0268C76.6667 41.9002 71.4333 36.6668 65 36.6668H54.0567L48.7533 60.0002H58.3333C59.2533 60.0002 60 60.7468 60 61.6668C60 62.5868 59.2533 63.3335 58.3333 63.3335H46.6667C46.16 63.3335 45.68 63.1035 45.3633 62.7068C45.0467 62.3135 44.9267 61.7935 45.04 61.3002L51.1 34.6335C51.2733 33.8702 51.9467 33.3335 52.7267 33.3335H65C73.27 33.3335 80 40.0635 80 48.3335L77.47 61.9735C77.3233 62.7635 76.6367 63.3335 75.8333 63.3335Z" fill="#1A6CCD"/>
<path d="M65 70.0001C60.4067 70.0001 56.6667 66.2635 56.6667 61.6668C56.6667 57.0702 60.4067 53.3335 65 53.3335C69.5933 53.3335 73.3334 57.0702 73.3334 61.6668C73.3334 66.2635 69.5933 70.0001 65 70.0001ZM65 56.6668C62.2433 56.6668 60 58.9102 60 61.6668C60 64.4235 62.2433 66.6668 65 66.6668C67.7567 66.6668 70 64.4235 70 61.6668C70 58.9102 67.7567 56.6668 65 56.6668Z" fill="#1A6CCD"/>
<path d="M28.3333 70.0001C23.74 70.0001 20 66.2635 20 61.6668C20 57.0702 23.74 53.3335 28.3333 53.3335C32.9267 53.3335 36.6667 57.0702 36.6667 61.6668C36.6667 66.2635 32.9267 70.0001 28.3333 70.0001ZM28.3333 56.6668C25.5767 56.6668 23.3333 58.9102 23.3333 61.6668C23.3333 64.4235 25.5767 66.6668 28.3333 66.6668C31.09 66.6668 33.3333 64.4235 33.3333 61.6668C33.3333 58.9102 31.09 56.6668 28.3333 56.6668Z" fill="#1A6CCD"/>
<path d="M21.6666 33.3333H8.33329C7.41329 33.3333 6.66663 32.5867 6.66663 31.6667C6.66663 30.7467 7.41329 30 8.33329 30H21.6666C22.5866 30 23.3333 30.7467 23.3333 31.6667C23.3333 32.5867 22.5866 33.3333 21.6666 33.3333Z" fill="#1A6CCD"/>
<path d="M21.6667 43.3333H5.00001C4.08001 43.3333 3.33334 42.5867 3.33334 41.6667C3.33334 40.7467 4.08001 40 5.00001 40H21.6667C22.5867 40 23.3333 40.7467 23.3333 41.6667C23.3333 42.5867 22.5867 43.3333 21.6667 43.3333Z" fill="#1A6CCD"/>
<path d="M21.6667 53.3333H1.66667C0.746667 53.3333 0 52.5867 0 51.6667C0 50.7467 0.746667 50 1.66667 50H21.6667C22.5867 50 23.3333 50.7467 23.3333 51.6667C23.3333 52.5867 22.5867 53.3333 21.6667 53.3333Z" fill="#1A6CCD"/>
<path d="M46.6667 63.3335H35C34.08 63.3335 33.3333 62.5868 33.3333 61.6668C33.3333 60.7468 34.08 60.0002 35 60.0002H45.3367L52.91 26.6668H15C14.08 26.6668 13.3333 25.9202 13.3333 25.0002C13.3333 24.0802 14.08 23.3335 15 23.3335H55C55.5067 23.3335 55.9867 23.5635 56.3033 23.9602C56.62 24.3535 56.74 24.8735 56.6267 25.3668L48.2933 62.0335C48.12 62.7968 47.4433 63.3335 46.6667 63.3335Z" fill="#1A6CCD"/>
</g>
<defs>
<clipPath id="clip0">
<rect width="80" height="80" fill="white"/>
</clipPath>
</defs>
</svg>
