<svg width="60" height="60" viewBox="0 0 60 60" fill="none" xmlns="http://www.w3.org/2000/svg">
<g clip-path="url(#clip0)">
<path d="M47.1301 3.39714C45.1808 1.20644 42.4788 0 39.5217 0C36.221 0 33.3599 1.5607 31.2476 4.51323C31.0892 4.7346 30.9411 4.95597 30.8022 5.17511C30.6634 4.95585 30.5153 4.7346 30.3569 4.51323C28.2445 1.5607 25.3833 0 22.0826 0C19.1255 0 16.4234 1.20644 14.4743 3.39702C12.6246 5.47593 11.6058 8.25514 11.6058 11.2227C11.6058 14.4475 12.8572 17.4233 15.5437 20.5878C17.8878 23.3487 21.2501 26.1867 25.1436 29.4728C26.5823 30.6872 28.0701 31.9429 29.6511 33.3132C29.9813 33.5993 30.3917 33.7426 30.8021 33.7426C31.2124 33.7426 31.6227 33.5993 31.9531 33.3132C33.5338 31.9433 35.0214 30.6876 36.4601 29.4734C38.9605 27.3629 41.1199 25.5403 42.9939 23.7724C46.6321 20.3397 49.9986 16.4436 49.9986 11.2228C49.9986 8.25514 48.9799 5.47604 47.1301 3.39714ZM40.5818 21.2157C38.7788 22.9169 36.6537 24.7105 34.1931 26.7873C33.0985 27.711 31.9758 28.6586 30.8022 29.665C29.6283 28.6587 28.5053 27.7109 27.4107 26.7869C19.7468 20.3183 15.1207 16.4138 15.1207 11.2228C15.1204 6.82862 18.1134 3.51503 22.0825 3.51503C24.203 3.51503 26.0064 4.51323 27.4426 6.48186C28.6212 8.09741 29.1051 9.77225 29.1084 9.7835C29.3193 10.5449 30.0121 11.072 30.8021 11.072C31.592 11.072 32.2848 10.5449 32.4958 9.7835C32.5131 9.7208 34.2923 3.51503 39.5217 3.51503C43.4908 3.51503 46.4838 6.82874 46.4838 11.2228C46.4838 14.4067 44.829 17.2084 40.5818 21.2157Z" fill="#1A6CCD"/>
<path d="M54.721 35.3961C53.2631 35.3961 51.8568 36.0082 50.8627 37.0753L45.6974 42.6204C45.0298 40.474 43.0249 38.911 40.6617 38.911H32.543C31.4064 38.911 30.3104 38.4975 29.457 37.7465C24.8676 33.7078 17.9693 33.6723 13.3363 37.6349C12.3808 36.2822 10.8065 35.3962 9.02811 35.3962H1.76414C0.793596 35.3962 0.00668335 36.183 0.00668335 37.1537V58.2428C0.00668335 59.2133 0.793478 60.0002 1.76414 60.0002H9.02811C10.6064 60.0002 12.0239 59.3021 12.9909 58.1996L14.0317 58.4921C17.5916 59.4928 21.2715 60.0001 24.9693 60.0001H40.6616C44.5131 60.0001 48.1922 58.1605 50.5031 55.0793L58.9405 43.8296C58.9406 43.8294 58.9407 43.8292 58.941 43.8289C59.6294 42.9109 59.9933 41.818 59.9933 40.6683C59.9933 37.7612 57.6281 35.3961 54.721 35.3961ZM10.7856 54.7277C10.7856 55.6967 9.99725 56.4852 9.02811 56.4852H3.52148V38.9109H9.02811C9.99713 38.9109 10.7856 39.6992 10.7856 40.6684V54.7277ZM56.1288 41.7204C56.1288 41.7205 56.1287 41.7205 56.1286 41.7206L47.6913 52.9705C46.0406 55.1714 43.4127 56.4853 40.6616 56.4853H24.9697C21.5934 56.4853 18.2334 56.0221 14.9831 55.1085L14.2958 54.9152C14.298 54.8529 14.3006 54.7906 14.3006 54.7278V41.4628L15.5253 40.385C18.8347 37.4729 23.8258 37.4727 27.1354 40.385C28.6308 41.7009 30.5512 42.4256 32.5432 42.4256H40.662C41.631 42.4256 42.4194 43.214 42.4194 44.1831C42.4194 45.1521 41.6311 45.9405 40.662 45.9405H28.1716C27.201 45.9405 26.4141 46.7273 26.4141 47.698C26.4141 48.6687 27.2009 49.4554 28.1716 49.4554H41.8396C43.2975 49.4554 44.7036 48.8436 45.6975 47.7767L53.4346 39.471C53.771 39.1098 54.2279 38.9109 54.721 38.9109C55.6901 38.9109 56.4785 39.6992 56.4785 40.6684C56.4785 41.0516 56.3576 41.4153 56.1288 41.7204Z" fill="#1A6CCD"/>
</g>
<defs>
<clipPath id="clip0">
<rect width="60" height="60" fill="white"/>
</clipPath>
</defs>
</svg>
