<svg width="70" height="70" viewBox="0 0 70 70" fill="none" xmlns="http://www.w3.org/2000/svg">
<g clip-path="url(#clip0)">
<path d="M24.8192 39.0085C25.0206 39.1143 25.2407 39.1665 25.46 39.1665C25.7394 39.1665 26.0177 39.0817 26.2547 38.9147C26.6777 38.6165 26.8981 38.1067 26.8255 37.5942L25.7593 30.0664C27.3757 27.8 28.3083 25.0476 28.3974 22.25C28.4962 19.1495 27.6016 16.1675 25.8109 13.6266C23.6258 10.5249 20.3637 8.45949 16.6256 7.81117C12.8873 7.16285 9.12038 8.00913 6.01892 10.1944C-0.383759 14.7058 -1.92335 23.5849 2.58687 29.9878C4.37733 32.5302 6.88476 34.3763 9.83774 35.3263C12.5009 36.1832 15.4064 36.2316 18.0854 35.4732L24.8192 39.0085ZM4.84163 28.3996C1.20696 23.2399 2.44769 16.0844 7.60745 12.4488C10.1068 10.6879 13.1424 10.006 16.1543 10.5284C19.1667 11.051 21.7954 12.7153 23.5565 15.2152C26.4384 19.3043 26.3032 24.9106 23.2276 28.8488C22.9972 29.1439 22.8966 29.52 22.9491 29.8908L23.7173 35.3151L18.8654 32.7677C18.6657 32.6629 18.4456 32.6096 18.2245 32.6096C18.0789 32.6096 17.9329 32.6327 17.7919 32.6793C12.9705 34.2724 7.76632 32.5526 4.84163 28.3996Z" fill="#1A6CCD"/>
<path d="M13.9184 13.0767C11.6062 13.0767 9.72522 14.9579 9.72522 17.2702V17.8163C9.72522 18.5778 10.3425 19.1952 11.104 19.1952C11.8656 19.1952 12.4828 18.5778 12.4828 17.8163V17.2702C12.4828 16.492 13.1402 15.8345 13.9182 15.8345C14.6963 15.8345 15.3537 16.492 15.3537 17.2702V17.8163C15.3537 18.0277 14.9092 18.5587 14.615 18.9102C13.9625 19.6896 13.1507 20.6596 13.1507 21.9883V23.7108C13.1507 24.4723 13.768 25.0897 14.5295 25.0897C15.291 25.0897 15.9083 24.4724 15.9083 23.7108V21.9883C15.9083 21.6615 16.3447 21.1402 16.7296 20.6803C17.3452 19.9449 18.1113 19.0295 18.1113 17.8164V17.2704C18.1115 14.9579 16.2304 13.0767 13.9184 13.0767Z" fill="#1A6CCD"/>
<path d="M14.5333 27.5996C13.7718 27.5996 13.1545 28.2169 13.1545 28.9786V28.9824C13.1545 29.7439 13.7718 30.3594 14.5333 30.3594C15.2949 30.3594 15.9122 29.7402 15.9122 28.9786C15.9123 28.2169 15.2949 27.5996 14.5333 27.5996Z" fill="#1A6CCD"/>
<path d="M69.7022 57.4036C68.1563 50.4183 64.8018 42.2001 52.6065 39.955V34.7976C55.3198 32.0383 56.8664 28.9537 56.8664 26.2677V22.9542C57.9515 22.3485 59.2976 21.3915 60.3456 19.4192C61.758 16.7606 62.3034 12.8698 62.0125 7.52467C61.988 7.07568 61.7461 6.66676 61.3644 6.42914C60.9828 6.19138 60.5094 6.15474 60.0954 6.33097C55.1738 8.42674 50.4407 7.81697 46.2651 7.27912C43.7073 6.94963 41.4982 6.66525 39.5209 7.01443C37.2658 7.41283 35.6609 8.60652 34.627 10.658C30.7942 13.0465 30.7941 17.6581 30.7941 22.1227V26.2677C30.7941 28.9613 32.3496 32.0558 35.0771 34.8211V39.955C22.8817 42.2001 19.5271 50.4181 17.9814 57.4027C17.6359 58.9585 17.3793 60.9188 18.4703 62.2786C19.5375 63.6087 21.3998 63.7794 22.9033 63.7794H31.3192C32.0808 63.7794 32.6981 63.1619 32.6981 62.4004C32.6981 61.6389 32.0808 61.0215 31.3192 61.0215H22.9033C21.245 61.0215 20.7618 60.7278 20.6214 60.5528C20.471 60.3652 20.2776 59.7843 20.6739 57.9996C21.8571 52.6533 24.033 47.0714 30.5967 44.1634L36.5502 53.2982C36.7829 53.6553 37.1677 53.8848 37.5926 53.9196C37.6303 53.9228 37.6681 53.9243 37.7055 53.9243C38.0905 53.9243 38.4601 53.7629 38.7224 53.4765L43.8416 47.8853L48.9609 53.4765C49.2231 53.7631 49.5928 53.9243 49.9778 53.9243C50.0153 53.9243 50.053 53.9228 50.0907 53.9196C50.5157 53.8848 50.9004 53.6553 51.1331 53.2982L57.0866 44.1634C63.6504 47.0714 65.8264 52.6535 67.0095 58.0005C67.4058 59.7843 67.2124 60.3652 67.0619 60.5527C66.9215 60.7277 66.4383 61.0213 64.7801 61.0213H44.5454C43.7839 61.0213 43.1666 61.6386 43.1666 62.4003C43.1666 63.1618 43.784 63.7792 44.5454 63.7792H64.7803C66.2837 63.7792 68.1461 63.6086 69.2133 62.2785C70.3043 60.9187 70.0476 58.9584 69.7022 57.4036ZM36.3512 12.8437C36.6178 12.6984 36.8287 12.4691 36.9517 12.1916C38.2884 9.17363 40.8036 9.35615 45.9127 10.0143C49.7375 10.507 54.3944 11.1067 59.3249 9.5522C59.3812 13.3706 58.9068 16.2491 57.9101 18.125C57.1029 19.6442 56.0912 20.2554 55.164 20.7381C47.8119 20.603 43.3165 19.5331 39.7009 17.0687C39.4647 16.9077 39.194 16.8292 38.9249 16.8292C38.554 16.8292 38.1862 16.9785 37.9172 17.2664C36.5069 18.7748 35.3112 19.5313 33.5668 20.1952C33.6405 16.4959 34.0628 14.092 36.3512 12.8437ZM33.552 26.2677V23.1289C35.5626 22.4605 37.2775 21.6879 39.1156 19.9683C42.8451 22.212 47.3508 23.2613 54.1086 23.4709V26.2677C54.1086 28.3085 52.6817 30.9038 50.2916 33.2103C48.0923 35.3327 45.4958 36.7586 43.8302 36.7586C42.1647 36.7586 39.5682 35.3326 37.3689 33.2103C34.9789 30.9038 33.552 28.3085 33.552 26.2677ZM37.8897 50.3022L33.2643 43.2055C34.1605 42.9504 35.1211 42.736 36.1525 42.5675L41.7168 46.122L37.8897 50.3022ZM37.835 40.3698V37.1701C39.939 38.6531 42.0945 39.5166 43.8304 39.5166C45.5726 39.5166 47.7375 38.6466 49.8487 37.1535V40.3698L43.8419 44.207L37.835 40.3698ZM49.7941 50.3023L45.9667 46.122L51.5312 42.5675C52.5626 42.736 53.5233 42.9504 54.4194 43.2055L49.7941 50.3023Z" fill="#1A6CCD"/>
<path d="M37.9325 61.0212C37.1709 61.0212 36.5536 61.6385 36.5536 62.4002C36.5536 63.1617 37.1709 63.7791 37.9325 63.7791H37.9403C38.7018 63.7791 39.3152 63.1618 39.3152 62.4002C39.3152 61.6385 38.694 61.0212 37.9325 61.0212Z" fill="#1A6CCD"/>
</g>
<defs>
<clipPath id="clip0">
<rect width="70" height="70" fill="white"/>
</clipPath>
</defs>
</svg>
