<svg width="35" height="35" viewBox="0 0 35 35" fill="none" xmlns="http://www.w3.org/2000/svg">
<path d="M17.5 0C7.83501 0 0 7.83501 0 17.5C0 27.165 7.83501 35 17.5 35C27.165 35 35 27.165 35 17.5C35 7.83501 27.165 0 17.5 0ZM26.8217 23.4404H24.601C24.3605 23.4407 24.123 23.3868 23.9063 23.2826C23.6895 23.1785 23.4989 23.0268 23.3488 22.8389C22.6829 22.0028 21.3709 20.5203 19.9934 19.8835C19.9136 19.8461 19.8257 19.8295 19.7378 19.8351C19.6499 19.8408 19.5648 19.8684 19.4904 19.9156C19.4161 19.9629 19.3548 20.028 19.3123 20.1052C19.2697 20.1824 19.2474 20.269 19.2472 20.3571V22.5533C19.2472 22.6698 19.2243 22.7852 19.1797 22.8928C19.1352 23.0004 19.0699 23.0982 18.9875 23.1806C18.9051 23.263 18.8074 23.3283 18.6998 23.3729C18.5921 23.4175 18.4768 23.4404 18.3603 23.4404H17.3335C15.9981 23.4404 13.1225 22.6276 10.8312 19.2897C8.87886 16.446 8.00857 14.2421 7.50107 12.4551C7.47157 12.3504 7.46674 12.2403 7.48696 12.1334C7.50718 12.0264 7.55191 11.9257 7.61762 11.839C7.68334 11.7522 7.76826 11.6819 7.86572 11.6335C7.96318 11.5852 8.07053 11.56 8.17934 11.5601H10.4258C10.6499 11.5599 10.8681 11.6321 11.0479 11.7658C11.2277 11.8996 11.3596 12.0879 11.4238 12.3026C11.8416 13.6998 12.9235 16.7138 14.8361 18.2147C14.8944 18.2607 14.9645 18.2893 15.0383 18.2973C15.1121 18.3053 15.1867 18.2924 15.2535 18.26C15.3204 18.2277 15.3767 18.1771 15.4162 18.1142C15.4557 18.0513 15.4766 17.9786 15.4767 17.9043V14.3862C15.4767 13.6909 15.1754 12.9953 14.7051 12.4516C14.6373 12.3736 14.5934 12.2778 14.5786 12.1756C14.5637 12.0733 14.5786 11.969 14.6215 11.875C14.6643 11.781 14.7333 11.7013 14.8202 11.6454C14.9071 11.5895 15.0082 11.5598 15.1115 11.5598H18.575C18.7534 11.5598 18.9244 11.6306 19.0505 11.7567C19.1767 11.8828 19.2475 12.0539 19.2475 12.2322V16.9712C19.2475 17.0398 19.2664 17.1071 19.3021 17.1657C19.3378 17.2243 19.389 17.2719 19.4499 17.3034C19.5109 17.3348 19.5793 17.3489 19.6478 17.344C19.7162 17.3392 19.782 17.3156 19.8379 17.2758C20.4736 16.8233 21.0181 16.1548 21.5189 15.4033C22.1492 14.458 22.9183 12.8954 23.3041 12.0845C23.3788 11.9274 23.4965 11.7947 23.6436 11.7018C23.7906 11.6089 23.961 11.5596 24.135 11.5596H26.585C26.6873 11.5595 26.7879 11.5856 26.8773 11.6353C26.9667 11.6851 27.0419 11.7568 27.0958 11.8438C27.1497 11.9307 27.1805 12.03 27.1853 12.1322C27.1901 12.2344 27.1687 12.3361 27.1232 12.4277C26.5049 13.6678 25.3008 15.9426 24.1676 17.2773C24.0054 17.4692 23.926 17.7177 23.9468 17.9681C23.9676 18.2185 24.0869 18.4505 24.2786 18.613C25.0172 19.2441 26.1703 20.4109 27.4135 22.3543C27.4821 22.4606 27.5207 22.5835 27.5254 22.71C27.5301 22.8365 27.5006 22.9619 27.44 23.073C27.3795 23.1842 27.2901 23.2769 27.1813 23.3416C27.0725 23.4062 26.9483 23.4404 26.8217 23.4404V23.4404Z" fill="#0C0C0C"/>
</svg>
